{
  "accessors": [
    {
      "bufferView": 2,
      "componentType": 5126,
      "count": 311,
      "max": [
        16.070123672485352,
        13.509995460510254,
        49.879486083984375
      ],
      "min": [
        -10.565404891967773,
        -18.313859939575195,
        -0.2206680029630661
      ],
      "type": "VEC3"
    },
    {
      "bufferView": 2,
      "byteOffset": 3732,
      "componentType": 5126,
      "count": 311,
      "max": [
        0.99704658985137939,
        0.99271810054779053,
        0.91397744417190552
      ],
      "min": [
        -0.9820283055305481,
        -0.99864333868026733,
        -0.9988713264465332
      ],
      "type": "VEC3"
    },
    {
      "bufferView": 3,
      "componentType": 5126,
      "count": 311,
      "max": [
        0.99736565351486206,
        0.99527812004089355,
        0.99816620349884033,
        1
      ],
      "min": [
        -0.98293960094451904,
        -0.86799794435501099,
        -0.99523311853408813,
        1
      ],
      "type": "VEC4"
    },
    {
      "bufferView": 1,
      "componentType": 5126,
      "count": 311,
      "max": [
        0.99372202157974243,
        0.99840599298477173
      ],
      "min": [
        0.0015940000303089619,
        0.0015940000303089619
      ],
      "type": "VEC2"
    },
    {
      "bufferView": 0,
      "componentType": 5125,
      "count": 852,
      "max": [
        310
      ],
      "min": [
        0
      ],
      "type": "SCALAR"
    }
  ],
  "asset": {
    "extras": {
      "author": "Daniel Bobrowski (https://sketchfab.com/Daniel.Bobrowski)",
      "license": "CC-BY-4.0 (http://creativecommons.org/licenses/by/4.0/)",
      "source": "https://sketchfab.com/3d-models/flat-bottomed-tree-moblie-game-asset-c41c43ca5893415bbe00604001ffa0e9",
      "title": "Flat Bottomed Tree - Moblie Game Asset"
    },
    "generator": "Sketchfab-6.22.0",
    "version": "2.0"
  },
  "bufferViews": [
    {
      "buffer": 0,
      "byteLength": 3408,
      "byteOffset": 0,
      "name": "floatBufferViews",
      "target": 34963
    },
    {
      "buffer": 0,
      "byteLength": 2488,
      "byteOffset": 3408,
      "byteStride": 8,
      "name": "floatBufferViews",
      "target": 34962
    },
    {
      "buffer": 0,
      "byteLength": 7464,
      "byteOffset": 5896,
      "byteStride": 12,
      "name": "floatBufferViews",
      "target": 34962
    },
    {
      "buffer": 0,
      "byteLength": 4976,
      "byteOffset": 13360,
      "byteStride": 16,
      "name": "floatBufferViews",
      "target": 34962
    }
  ],
  "buffers": [
    {
      "byteLength": 18336,
      "uri": "scene.bin"
    }
  ],
  "images": [
    {
      "uri": "textures/flat_bottomed_tree_baseColor.png"
    }
  ],
  "materials": [
    {
      "doubleSided": true,
      "emissiveFactor": [
        0,
        0,
        0
      ],
      "name": "flat_bottomed_tree",
      "pbrMetallicRoughness": {
        "baseColorFactor": [
          1,
          1,
          1,
          1
        ],
        "baseColorTexture": {
          "index": 0,
          "texCoord": 0
        },
        "metallicFactor": 0,
        "roughnessFactor": 0.6334381103515625
      }
    }
  ],
  "meshes": [
    {
      "primitives": [
        {
          "attributes": {
            "NORMAL": 1,
            "POSITION": 0,
            "TANGENT": 2,
            "TEXCOORD_0": 3
          },
          "indices": 4,
          "material": 0,
          "mode": 4
        }
      ]
    }
  ],
  "nodes": [
    {
      "children": [
        1
      ],
      "name": "RootNode (gltf orientation matrix)",
      "rotation": [
        -0.70710678118654746,
        -0,
        -0,
        0.70710678118654757
      ]
    },
    {
      "children": [
        2
      ],
      "matrix": [
        1,
        0,
        0,
        0,
        0,
        0.999988853931427,
        0.0047225248999893665,
        0,
        0,
        -0.0047225248999893665,
        0.999988853931427,
        0,
        0,
        0.11723063886165619,
        0.011620170436799526,
        1
      ],
      "name": "RootNode (model correction matrix)"
    },
    {
      "children": [
        3
      ],
      "name": "fat_bottomed_tree.obj.cleaner.materialmerger.gles"
    },
    {
      "mesh": 0,
      "name": ""
    }
  ],
  "samplers": [
    {
      "magFilter": 9729,
      "minFilter": 9987,
      "wrapS": 10497,
      "wrapT": 10497
    }
  ],
  "scene": 0,
  "scenes": [
    {
      "name": "OSG_Scene",
      "nodes": [
        0
      ]
    }
  ],
  "textures": [
    {
      "sampler": 0,
      "source": 0
    }
  ]
}

