{
  "accessors": [
    {
      "bufferView": 2,
      "componentType": 5126,
      "count": 10,
      "max": [
        1.0506000518798828,
        2.9958999156951904,
        32.675899505615234
      ],
      "min": [
        -2.2736001014709473,
        -2.9958999156951904,
        27.928499221801758
      ],
      "type": "VEC3"
    },
    {
      "bufferView": 2,
      "byteOffset": 120,
      "componentType": 5126,
      "count": 10,
      "max": [
        -0.62379366159439087,
        0.28900924324989319,
        0.7779921293258667
      ],
      "min": [
        -0.94441646337509155,
        -0.28900110721588135,
        0.32010558247566223
      ],
      "type": "VEC3"
    },
    {
      "bufferView": 3,
      "componentType": 5126,
      "count": 10,
      "max": [
        0,
        0,
        0,
        1
      ],
      "min": [
        0,
        0,
        0,
        1
      ],
      "type": "VEC4"
    },
    {
      "bufferView": 1,
      "componentType": 5126,
      "count": 10,
      "max": [
        0.94999998807907104,
        1
      ],
      "min": [
        0.05000000074505806,
        1
      ],
      "type": "VEC2"
    },
    {
      "bufferView": 0,
      "componentType": 5125,
      "count": 24,
      "max": [
        9
      ],
      "min": [
        0
      ],
      "type": "SCALAR"
    },
    {
      "bufferView": 2,
      "byteOffset": 240,
      "componentType": 5126,
      "count": 64,
      "max": [
        2.0248000621795654,
        5.5496001243591309,
        35.397300720214844
      ],
      "min": [
        -4.5788002014160156,
        -5.5496001243591309,
        26.215000152587891
      ],
      "type": "VEC3"
    },
    {
      "bufferView": 2,
      "byteOffset": 1008,
      "componentType": 5126,
      "count": 64,
      "max": [
        0.99097055196762085,
        0.91326546669006348,
        0.98014509677886963
      ],
      "min": [
        -0.9981238842010498,
        -0.91325521469116211,
        -0.97128379344940186
      ],
      "type": "VEC3"
    },
    {
      "bufferView": 3,
      "byteOffset": 160,
      "componentType": 5126,
      "count": 64,
      "max": [
        0.57278507947921753,
        0.9986271858215332,
        0.8180425763130188,
        1
      ],
      "min": [
        -0.81632661819458008,
        -0.99863022565841675,
        -0.9155876636505127,
        1
      ],
      "type": "VEC4"
    },
    {
      "bufferView": 1,
      "byteOffset": 80,
      "componentType": 5126,
      "count": 64,
      "max": [
        0.94999998807907104,
        1
      ],
      "min": [
        -0.05000000074505806,
        0
      ],
      "type": "VEC2"
    },
    {
      "bufferView": 0,
      "byteOffset": 96,
      "componentType": 5125,
      "count": 240,
      "max": [
        63
      ],
      "min": [
        0
      ],
      "type": "SCALAR"
    },
    {
      "bufferView": 2,
      "byteOffset": 1776,
      "componentType": 5126,
      "count": 108,
      "max": [
        3.3032999038696289,
        7.4218001365661621,
        32.230300903320312
      ],
      "min": [
        -3.1991000175476074,
        -7.7316999435424805,
        0
      ],
      "type": "VEC3"
    },
    {
      "bufferView": 2,
      "byteOffset": 3072,
      "componentType": 5126,
      "count": 108,
      "max": [
        1,
        1,
        0.94016790390014648
      ],
      "min": [
        -1,
        -1,
        -0.89242982864379883
      ],
      "type": "VEC3"
    },
    {
      "bufferView": 3,
      "byteOffset": 1184,
      "componentType": 5126,
      "count": 108,
      "max": [
        1,
        1,
        0.92115229368209839,
        1
      ],
      "min": [
        -1,
        -1,
        -0.92256766557693481,
        -1
      ],
      "type": "VEC4"
    },
    {
      "bufferView": 1,
      "byteOffset": 592,
      "componentType": 5126,
      "count": 108,
      "max": [
        1,
        1
      ],
      "min": [
        0,
        0
      ],
      "type": "VEC2"
    },
    {
      "bufferView": 0,
      "byteOffset": 1056,
      "componentType": 5125,
      "count": 234,
      "max": [
        107
      ],
      "min": [
        0
      ],
      "type": "SCALAR"
    }
  ],
  "asset": {
    "extras": {
      "author": "turtlemode (https://sketchfab.com/turtlemode)",
      "license": "CC-BY-4.0 (http://creativecommons.org/licenses/by/4.0/)",
      "source": "https://sketchfab.com/3d-models/sunflower-low-poly-0615fb09b7cd424d99d89f7c6e35eec3",
      "title": "Sunflower low poly"
    },
    "generator": "Sketchfab-7.6.0",
    "version": "2.0"
  },
  "bufferViews": [
    {
      "buffer": 0,
      "byteLength": 1992,
      "byteOffset": 0,
      "name": "floatBufferViews",
      "target": 34963
    },
    {
      "buffer": 0,
      "byteLength": 1456,
      "byteOffset": 1992,
      "byteStride": 8,
      "name": "floatBufferViews",
      "target": 34962
    },
    {
      "buffer": 0,
      "byteLength": 4368,
      "byteOffset": 3448,
      "byteStride": 12,
      "name": "floatBufferViews",
      "target": 34962
    },
    {
      "buffer": 0,
      "byteLength": 2912,
      "byteOffset": 7816,
      "byteStride": 16,
      "name": "floatBufferViews",
      "target": 34962
    }
  ],
  "buffers": [
    {
      "byteLength": 10728,
      "uri": "scene.bin"
    }
  ],
  "materials": [
    {
      "doubleSided": true,
      "name": "GreenPlantStandard",
      "pbrMetallicRoughness": {
        "baseColorFactor": [
          0.042755839851099792,
          0.19028566855800069,
          0.020285704516797308,
          1
        ],
        "metallicFactor": 0,
        "roughnessFactor": 0.59999999999999998
      }
    },
    {
      "doubleSided": true,
      "name": "SunflowerBrown",
      "pbrMetallicRoughness": {
        "baseColorFactor": [
          0.017731970279301498,
          0.010454733035041941,
          0.010454733035041941,
          1
        ],
        "metallicFactor": 0,
        "roughnessFactor": 0.59999999999999998
      }
    },
    {
      "doubleSided": true,
      "name": "SunflowerYellow",
      "pbrMetallicRoughness": {
        "baseColorFactor": [
          0.95040749165796068,
          0.4877964327406164,
          0.024189036068508085,
          1
        ],
        "metallicFactor": 0,
        "roughnessFactor": 0.59999999999999998
      }
    }
  ],
  "meshes": [
    {
      "primitives": [
        {
          "attributes": {
            "NORMAL": 1,
            "POSITION": 0,
            "TANGENT": 2,
            "TEXCOORD_0": 3
          },
          "indices": 4,
          "material": 1,
          "mode": 4
        }
      ]
    },
    {
      "primitives": [
        {
          "attributes": {
            "NORMAL": 6,
            "POSITION": 5,
            "TANGENT": 7,
            "TEXCOORD_0": 8
          },
          "indices": 9,
          "material": 2,
          "mode": 4
        }
      ]
    },
    {
      "primitives": [
        {
          "attributes": {
            "NORMAL": 11,
            "POSITION": 10,
            "TANGENT": 12,
            "TEXCOORD_0": 13
          },
          "indices": 14,
          "material": 0,
          "mode": 4
        }
      ]
    }
  ],
  "nodes": [
    {
      "children": [
        1
      ],
      "name": "RootNode (gltf orientation matrix)",
      "rotation": [
        -0.70710678118654746,
        -0,
        -0,
        0.70710678118654757
      ]
    },
    {
      "children": [
        2
      ],
      "matrix": [
        0.00094253045972436666,
        0.99999958276748657,
        0,
        0,
        -0.99999958276748657,
        0.00094253045972436666,
        0,
        0,
        0,
        0,
        1,
        0,
        -0.792743980884552,
        0.48344197869300842,
        0,
        1
      ],
      "name": "RootNode (model correction matrix)"
    },
    {
      "children": [
        3,
        4,
        5
      ],
      "name": "04-11-19_sunflower_v1.obj.cleaner.materialmerger.gles"
    },
    {
      "mesh": 0,
      "name": ""
    },
    {
      "mesh": 1,
      "name": ""
    },
    {
      "mesh": 2,
      "name": ""
    }
  ],
  "scene": 0,
  "scenes": [
    {
      "name": "OSG_Scene",
      "nodes": [
        0
      ]
    }
  ]
}

